<svg xmlns="http://www.w3.org/2000/svg" width="512" height="512" viewBox="0 0 512 512">
  <!-- The app icon with its own rounded corners, for browser tabs and desktop installs. -->
  <rect width="512" height="512" rx="112" fill="#eef9f8"/>
  <g transform="translate(-11,0)"><rect x="150" y="112" width="44" height="288" fill="#0e7c80"/><rect x="150" y="112" width="156" height="44" fill="#0e7c80"/><rect x="150" y="224" width="156" height="44" fill="#0e7c80"/><path d="M306 112 A78 78 0 0 1 306 268 L306 224 A34 34 0 0 0 306 156 Z" fill="#0e7c80"/><rect x="150" y="356" width="210" height="44" fill="#0e7c80"/><path transform="translate(277,305.5) scale(1.3)" d="M0 -12 C-6 -26 -30 -24 -30 -4 C-30 12 -10 22 0 32 C10 22 30 12 30 -4 C30 -24 6 -26 0 -12 Z" fill="#d62839"/></g>
</svg>
